# xmcd
#
# Track frame offsets: 
#        150
#        20557
#        38395
#        58182
#        74830
#        94007
#        102152
#        119995
#        135497
#        149602
#        185447
#        203590
#
# Disc length: 2845 seconds
#
# Revision: 19
# Processed by: cddbd v1.5.2PL0 Copyright (c) Steve Scherf et al.
# Submitted via: ExactAudioCopyFreeDBPlugin 1.0
#
DISCID=b40b1b0c
DTITLE=Janis Joplin - The Very Best Of Janis Joplin
DYEAR=1995
DGENRE=Blues
TTITLE0=Me And Bobby McGee
TTITLE1=Cry Baby
TTITLE2=Kozmic Blues
TTITLE3=Move Over
TTITLE4=Piece Of My Heart
TTITLE5=Mercedes Benz
TTITLE6=Try (Just A Little Bit Harder)
TTITLE7=Get It While You Can
TTITLE8=Big Brother And The Holding Company: Down On Me
TTITLE9=Ball And Chain
TTITLE10=Summertime
TTITLE11=Mary Jane
EXTD=YEAR: 1995
EXTT0=
EXTT1=
EXTT2=
EXTT3=
EXTT4=
EXTT5=
EXTT6=
EXTT7=
EXTT8=
EXTT9=
EXTT10=
EXTT11=
PLAYORDER=
